<svg version="1.1" id="Layer_1" xmlns="http://www.w3.org/2000/svg" xmlns:xlink="http://www.w3.org/1999/xlink" x="0px" y="0px"
	 width="100%" viewBox="0 0 1090 1086" enable-background="new 0 0 1090 1086" xml:space="preserve">
<path fill="#FBF9F9" opacity="1.000000" stroke="none" 
	d="
M1.000000,694.000000 
	C1.000000,692.285645 1.000000,690.571289 1.388429,688.372925 
	C1.881884,683.956726 1.986911,680.024658 2.339395,675.831055 
	C2.698069,674.382385 2.809287,673.195190 2.934698,671.548828 
	C2.955929,668.968445 3.215251,666.807495 2.889726,664.738525 
	C2.631988,663.100464 1.656676,661.575317 1.000004,660.000000 
	C1.000000,658.285645 1.000000,656.571289 1.379443,654.378296 
	C3.605780,651.064697 4.029643,648.366455 1.000000,646.000000 
	C1.000000,644.285645 1.000000,642.571289 1.324900,640.216125 
	C2.073006,634.715088 2.496212,629.854797 2.947547,624.596436 
	C2.957063,623.134460 2.938449,622.070740 2.934317,620.544678 
	C2.955773,613.166199 3.074007,606.246887 2.880122,599.336304 
	C2.839106,597.874451 1.656580,596.444580 1.000003,595.000000 
	C1.000000,592.629456 1.000000,590.258850 1.238497,587.376953 
	C1.758616,586.676331 1.971927,586.428223 2.371719,585.814697 
	C2.723338,583.338989 2.820163,581.169922 2.931881,578.567017 
	C2.297850,575.088806 1.648925,572.044373 1.000000,569.000000 
	C1.000000,568.250000 1.000000,567.500000 1.388146,566.319214 
	C3.526371,563.061279 4.358540,560.324463 1.000000,558.000000 
	C1.000000,540.979126 1.000000,523.958191 1.354915,506.434998 
	C3.564250,504.244354 3.912081,502.827972 1.000000,502.000000 
	C1.000000,453.312439 1.000000,404.624878 1.404460,355.403229 
	C2.205553,352.223114 2.968029,349.571533 2.927994,346.932129 
	C2.821717,339.925323 2.368995,332.923767 1.789053,325.920166 
	C1.349349,325.946869 1.174675,325.973450 1.000000,326.000000 
	C1.000000,318.312408 1.000000,310.624847 1.354915,302.434967 
	C3.564250,300.244354 3.912081,298.827972 1.000000,298.000000 
	C1.000000,291.312347 1.000000,284.624725 1.302258,277.245117 
	C1.762695,275.053650 1.920873,273.554138 2.080125,271.703308 
	C1.720798,270.567993 1.360397,269.783997 0.999999,269.000000 
	C1.000000,244.979111 1.000000,220.958206 1.318868,196.204742 
	C2.073748,191.576431 2.644993,187.687592 2.843541,183.779816 
	C2.888917,182.886734 1.648591,181.928329 1.000000,181.000000 
	C1.000000,172.645767 1.000000,164.291534 1.354913,155.434998 
	C3.564262,153.244370 3.912097,151.827988 1.000000,151.000000 
	C1.000000,130.312439 1.000000,109.624878 1.354917,88.434998 
	C3.564258,86.244362 3.912119,84.827972 1.000000,84.000000 
	C1.000000,74.645767 1.000000,65.291542 1.354917,55.434994 
	C3.564262,53.244358 3.912085,51.827980 1.000000,51.000000 
	C1.000000,44.645603 1.000000,38.291203 1.205587,31.408344 
	C1.274116,30.586588 1.137058,30.293293 1.000000,30.000000 
	C1.000000,20.979105 1.000000,11.958208 1.241992,2.390661 
	C1.655989,1.562673 1.827994,1.281336 2.000000,1.000000 
	C363.687592,1.000000 725.375183,1.000000 1087.506348,1.465542 
	C1087.953491,361.121918 1087.957031,720.312744 1087.962280,1079.503540 
	C1087.962402,1082.002319 1087.986816,1084.501221 1088.000000,1087.000000 
	C726.645752,1087.000000 365.291534,1087.000000 3.459647,1086.569580 
	C2.321318,1083.426147 1.660656,1080.713135 0.999998,1078.000000 
	C1.000000,1074.307129 1.000000,1070.614136 1.397723,1066.399048 
	C1.918369,1062.250610 2.041292,1058.624268 2.154710,1054.586426 
	C1.763468,1047.116455 1.381732,1040.058228 0.999998,1033.000000 
	C1.000000,1024.645752 1.000000,1016.291504 1.313520,1007.217896 
	C1.781660,1004.029419 1.936280,1001.560303 2.344416,998.812622 
	C2.705698,997.025757 2.813464,995.517456 2.935063,993.559509 
	C2.955935,985.354004 3.073645,977.595398 2.880395,969.844543 
	C2.839769,968.215088 1.656649,966.614075 0.999989,965.000000 
	C1.000000,963.285645 1.000000,961.571289 1.382332,959.376709 
	C3.212260,956.408875 4.525436,953.936218 1.000000,952.000000 
	C1.000000,948.969421 1.000000,945.938782 1.397938,942.391724 
	C3.172647,938.129944 4.677463,934.375366 1.000000,931.000000 
	C1.000000,929.285645 1.000000,927.571289 1.385885,925.374390 
	C1.902911,921.595642 2.034052,918.299377 2.410398,914.717041 
	C2.742718,912.620911 2.829834,910.810913 2.932310,908.542236 
	C2.955116,905.963379 3.214982,903.803467 2.889690,901.735596 
	C2.632181,900.098450 1.656679,898.574341 1.000005,897.000000 
	C1.000000,895.285645 1.000000,893.571289 1.397938,891.366089 
	C3.172647,887.129944 4.677463,883.375366 1.000000,880.000000 
	C1.000000,878.285645 1.000000,876.571289 1.385122,874.374023 
	C3.496806,870.755554 4.192869,867.709351 1.000000,865.000000 
	C1.000000,860.975464 1.000000,856.950928 1.245615,852.528931 
	C1.660166,852.145447 1.829102,852.159363 2.218778,852.278137 
	C2.598888,851.589600 2.758258,850.796265 2.932298,849.569092 
	C2.297974,846.756775 1.648981,844.378418 0.999994,842.000000 
	C1.000000,836.977905 1.000000,831.955811 1.288340,826.305908 
	C1.384452,823.785461 1.192225,821.892700 0.999998,820.000000 
	C1.000000,819.250000 1.000000,818.500000 1.309831,817.132935 
	C1.246620,812.686218 5.391525,808.613464 1.000000,805.000000 
	C1.000000,804.555542 1.000000,804.111084 1.368281,803.292725 
	C3.386263,800.995483 4.167465,799.202087 1.000000,798.000000 
	C1.000000,795.958313 1.000000,793.916687 1.397716,791.376221 
	C2.169302,787.585205 2.543172,784.293091 2.932181,780.557068 
	C2.298213,774.742126 1.649107,769.371094 1.000000,764.000000 
	C1.000000,760.638733 1.000000,757.277405 1.404456,753.392639 
	C2.205439,751.536194 2.931502,750.206482 2.944683,748.869751 
	C3.026386,740.584412 2.947939,732.297424 2.935840,723.570068 
	C2.299349,720.086121 1.649677,717.043091 1.000003,714.000000 
	C1.000000,712.285645 1.000000,710.571289 1.324285,708.216736 
	C3.100934,702.971313 4.835237,698.352600 1.000000,694.000000 
M760.001099,694.500000 
	C758.539856,653.494202 757.078613,612.488403 755.631409,571.876282 
	C693.852295,571.258423 633.551758,570.655334 573.057739,570.050293 
	C574.978271,611.353943 576.920349,653.120911 578.873108,695.118042 
	C576.374084,695.118042 574.550354,695.118042 572.726624,695.118042 
	C538.894409,695.118042 505.062134,695.118042 471.229889,695.118042 
	C462.628998,695.118042 462.608673,695.124817 459.938568,687.109497 
	C452.306732,664.200073 448.075470,640.549805 444.641693,616.726868 
	C440.850189,590.422302 436.894958,564.138977 437.615356,537.426819 
	C438.159698,517.243164 440.326935,497.334320 445.822327,477.806580 
	C449.671783,464.127625 458.192535,454.150238 470.974304,449.439575 
	C486.284393,443.797150 502.173889,439.090576 518.212463,436.193573 
	C551.656372,430.152771 585.505676,428.122467 619.539001,429.586945 
	C649.378113,430.870941 678.848694,434.614136 707.864502,441.718536 
	C718.124512,444.230652 728.315857,447.023376 738.925537,449.788879 
	C737.163696,402.924194 735.416138,356.441956 733.677429,310.194519 
	C732.938110,309.820312 732.659607,309.593597 732.349121,309.534363 
	C693.725037,302.160614 654.772705,297.654388 615.466675,296.383301 
	C580.476440,295.251770 545.588501,296.730774 510.825165,300.929749 
	C471.287415,305.705414 433.320648,315.826294 398.173065,334.980713 
	C380.739288,344.481720 364.255615,355.392853 351.635986,371.202911 
	C340.868195,384.692963 330.920685,398.780457 328.273560,416.241547 
	C325.860321,432.159607 323.801178,448.249878 323.303009,464.317474 
	C321.836884,511.605774 323.154266,558.867249 327.873993,605.969055 
	C330.988678,637.052856 334.542114,668.094360 338.114349,699.130005 
	C339.562256,711.709412 342.647217,723.908020 348.726654,735.173157 
	C358.294983,752.903198 373.959076,763.523804 392.355988,769.328857 
	C405.366150,773.434143 419.266479,775.144775 432.907684,776.747131 
	C481.659698,782.473633 530.562439,786.536682 579.641846,788.121277 
	C618.563538,789.377991 657.489929,790.490967 696.415527,791.624329 
	C710.225403,792.026428 724.037842,792.359375 737.851257,792.608398 
	C745.288025,792.742554 752.729248,792.632324 760.178650,792.632324 
	C760.178650,776.219177 760.201782,760.104553 760.172241,743.990051 
	C760.142517,727.826660 760.060303,711.663330 760.001099,694.500000 
z"/>
<path fill="#D3D3D3" opacity="1.000000" stroke="none" 
	d="
M1088.500000,1087.000000 
	C1087.986816,1084.501221 1087.962402,1082.002319 1087.962280,1079.503540 
	C1087.957031,720.312744 1087.953491,361.121918 1087.974976,1.465542 
	C1089.654419,1.048076 1091.871704,0.378562 1091.024292,3.506567 
	C1090.855957,4.127651 1091.000000,4.833333 1091.000000,5.500000 
	C1091.000000,364.500000 1091.003662,723.500000 1090.858765,1082.500000 
	C1090.858276,1083.788818 1093.328491,1087.127441 1088.500000,1087.000000 
z"/>
<path fill="#D3D3D3" opacity="1.000000" stroke="none" 
	d="
M2.919420,624.994568 
	C2.496212,629.854797 2.073006,634.715088 1.324900,639.787659 
	C1.000000,625.312439 1.000000,610.624878 1.000003,595.468628 
	C1.656580,596.444580 2.839106,597.874451 2.880122,599.336304 
	C3.074007,606.246887 2.955773,613.166199 2.694271,620.764648 
	C2.599636,622.629517 2.759529,623.812012 2.919420,624.994568 
z"/>
<path fill="#D3D3D3" opacity="1.000000" stroke="none" 
	d="
M2.090898,999.091248 
	C1.936280,1001.560303 1.781660,1004.029419 1.313520,1006.749268 
	C1.000000,993.312439 1.000000,979.624878 0.999989,965.468628 
	C1.656649,966.614075 2.839769,968.215088 2.880395,969.844543 
	C3.073645,977.595398 2.955935,985.354004 2.675117,993.825439 
	C2.297858,996.057739 2.194377,997.574524 2.090898,999.091248 
z"/>
<path fill="#D3D3D3" opacity="1.000000" stroke="none" 
	d="
M2.091939,676.092529 
	C1.986911,680.024658 1.881884,683.956726 1.388429,687.944458 
	C1.000000,678.979126 1.000000,669.958191 1.000004,660.468628 
	C1.656676,661.575317 2.631988,663.100464 2.889726,664.738525 
	C3.215251,666.807495 2.955929,668.968445 2.680447,671.798828 
	C2.305316,673.702820 2.198627,674.897644 2.091939,676.092529 
z"/>
<path fill="#D3D3D3" opacity="1.000000" stroke="none" 
	d="
M1.000003,714.468628 
	C1.649677,717.043091 2.299349,720.086121 2.661302,723.877014 
	C2.249053,728.397949 2.202542,732.175720 1.978755,735.942932 
	C1.739701,739.967163 1.333332,743.981384 1.000000,748.000000 
	C1.000000,736.979126 1.000000,725.958191 1.000003,714.468628 
z"/>
<path fill="#DDDDDD" opacity="1.000000" stroke="none" 
	d="
M2.054082,325.920105 
	C2.368995,332.923767 2.821717,339.925323 2.927994,346.932129 
	C2.968029,349.571533 2.205553,352.223114 1.404460,354.934570 
	C1.000000,352.629425 1.000000,350.258881 1.294065,347.147705 
	C1.743447,339.578094 1.898764,332.749115 2.054082,325.920105 
z"/>
<path fill="#DDDDDD" opacity="1.000000" stroke="none" 
	d="
M1.000000,748.416626 
	C1.333332,743.981384 1.739701,739.967163 1.978755,735.942932 
	C2.202542,732.175720 2.249053,728.397949 2.648121,724.317871 
	C2.947939,732.297424 3.026386,740.584412 2.944683,748.869751 
	C2.931502,750.206482 2.205439,751.536194 1.404456,752.934570 
	C1.000000,751.611084 1.000000,750.222229 1.000000,748.416626 
z"/>
<path fill="#D3D3D3" opacity="1.000000" stroke="none" 
	d="
M0.999998,1033.468506 
	C1.381732,1040.058228 1.763468,1047.116455 1.862859,1054.587646 
	C1.387010,1055.000366 1.193505,1055.000122 1.000000,1055.000000 
	C1.000000,1047.979004 1.000000,1040.958130 0.999998,1033.468506 
z"/>
<path fill="#D3D3D3" opacity="1.000000" stroke="none" 
	d="
M1.000005,897.464661 
	C1.656679,898.574341 2.632181,900.098450 2.889690,901.735596 
	C3.214982,903.803467 2.955116,905.963379 2.706419,908.708008 
	C1.976770,909.888245 1.488372,910.444092 0.999987,911.000000 
	C1.000000,906.643127 1.000000,902.286194 1.000005,897.464661 
z"/>
<path fill="#D3D3D3" opacity="1.000000" stroke="none" 
	d="
M1.000000,694.464661 
	C4.835237,698.352600 3.100934,702.971313 1.324285,707.788269 
	C1.000000,703.643127 1.000000,699.286194 1.000000,694.464661 
z"/>
<path fill="#D3D3D3" opacity="1.000000" stroke="none" 
	d="
M1.000000,764.468262 
	C1.649107,769.371094 2.298213,774.742126 2.706284,780.722778 
	C1.976833,781.888245 1.488418,782.444153 1.000001,783.000000 
	C1.000000,776.978821 1.000000,770.957703 1.000000,764.468262 
z"/>
<path fill="#D3D3D3" opacity="1.000000" stroke="none" 
	d="
M1.000000,931.458069 
	C4.677463,934.375366 3.172647,938.129944 1.397938,941.937622 
	C1.000000,938.638733 1.000000,935.277405 1.000000,931.458069 
z"/>
<path fill="#D3D3D3" opacity="1.000000" stroke="none" 
	d="
M1.000000,880.458069 
	C4.677463,883.375366 3.172647,887.129944 1.397938,890.937622 
	C1.000000,887.638733 1.000000,884.277405 1.000000,880.458069 
z"/>
<path fill="#DDDDDD" opacity="1.000000" stroke="none" 
	d="
M1.000000,1055.458008 
	C1.193505,1055.000122 1.387010,1055.000366 1.872365,1054.999268 
	C2.041292,1058.624268 1.918369,1062.250610 1.397723,1065.938477 
	C1.000000,1062.638672 1.000000,1059.277466 1.000000,1055.458008 
z"/>
<path fill="#D3D3D3" opacity="1.000000" stroke="none" 
	d="
M1.789053,325.920166 
	C1.898764,332.749115 1.743447,339.578094 1.294065,346.703552 
	C1.000000,340.312347 1.000000,333.624725 1.000000,326.468536 
	C1.174675,325.973450 1.349349,325.946869 1.789053,325.920166 
z"/>
<path fill="#D3D3D3" opacity="1.000000" stroke="none" 
	d="
M1.000000,569.460632 
	C1.648925,572.044373 2.297850,575.088806 2.705991,578.732788 
	C1.976801,579.888245 1.488395,580.444153 0.999995,581.000000 
	C1.000000,577.307068 1.000000,573.614197 1.000000,569.460632 
z"/>
<path fill="#D3D3D3" opacity="1.000000" stroke="none" 
	d="
M1.000000,181.466125 
	C1.648591,181.928329 2.888917,182.886734 2.843541,183.779816 
	C2.644993,187.687592 2.073748,191.576431 1.318868,195.736084 
	C1.000000,191.310745 1.000000,186.621490 1.000000,181.466125 
z"/>
<path fill="#D3D3D3" opacity="1.000000" stroke="none" 
	d="
M0.999994,842.454102 
	C1.648981,844.378418 2.297974,846.756775 2.696712,849.765747 
	C2.296985,850.988647 2.147513,851.580994 1.998039,852.173340 
	C1.829102,852.159363 1.660166,852.145447 1.245615,852.065796 
	C1.000000,848.969421 1.000000,845.938782 0.999994,842.454102 
z"/>
<path fill="#DDDDDD" opacity="1.000000" stroke="none" 
	d="
M1.000001,783.444153 
	C1.488418,782.444153 1.976833,781.888245 2.691145,781.166626 
	C2.543172,784.293091 2.169302,787.585205 1.397716,790.938721 
	C1.000000,788.629456 1.000000,786.258850 1.000001,783.444153 
z"/>
<path fill="#D3D3D3" opacity="1.000000" stroke="none" 
	d="
M1.000000,865.449951 
	C4.192869,867.709351 3.496806,870.755554 1.385122,873.945557 
	C1.000000,871.299988 1.000000,868.599976 1.000000,865.449951 
z"/>
<path fill="#D3D3D3" opacity="1.000000" stroke="none" 
	d="
M1.000000,805.460632 
	C5.391525,808.613464 1.246620,812.686218 1.309831,816.757935 
	C1.000000,813.307068 1.000000,809.614197 1.000000,805.460632 
z"/>
<path fill="#D3D3D3" opacity="1.000000" stroke="none" 
	d="
M0.999998,1078.490967 
	C1.660656,1080.713135 2.321318,1083.426147 2.990993,1086.569580 
	C2.333340,1086.553589 1.139704,1086.157715 1.091109,1085.651855 
	C0.879173,1083.446045 1.000000,1081.208252 0.999998,1078.490967 
z"/>
<path fill="#D3D3D3" opacity="1.000000" stroke="none" 
	d="
M2.165192,915.003113 
	C2.034052,918.299377 1.902911,921.595642 1.385885,924.945923 
	C1.000000,921.969421 1.000000,918.938782 1.291300,915.454102 
	C1.776797,915.000977 1.970994,915.002075 2.165192,915.003113 
z"/>
<path fill="#DDDDDD" opacity="1.000000" stroke="none" 
	d="
M1.000000,558.444153 
	C4.358540,560.324463 3.526371,563.061279 1.388146,565.944214 
	C1.000000,563.629456 1.000000,561.258850 1.000000,558.444153 
z"/>
<path fill="#D3D3D3" opacity="1.000000" stroke="none" 
	d="
M1.000000,646.444153 
	C4.029643,648.366455 3.605780,651.064697 1.379443,653.949829 
	C1.000000,651.629456 1.000000,649.258850 1.000000,646.444153 
z"/>
<path fill="#D3D3D3" opacity="1.000000" stroke="none" 
	d="
M1.000000,952.437500 
	C4.525436,953.936218 3.212260,956.408875 1.382332,958.948242 
	C1.000000,956.958313 1.000000,954.916687 1.000000,952.437500 
z"/>
<path fill="#DDDDDD" opacity="1.000000" stroke="none" 
	d="
M0.999995,581.399963 
	C1.488395,580.444153 1.976801,579.888245 2.691097,579.166626 
	C2.820163,581.169922 2.723338,583.338989 2.237118,585.577026 
	C1.565151,585.430725 1.282580,585.215332 1.000004,585.000000 
	C1.000000,583.933289 1.000000,582.866638 0.999995,581.399963 
z"/>
<path fill="#DDDDDD" opacity="1.000000" stroke="none" 
	d="
M1.000000,798.416626 
	C4.167465,799.202087 3.386263,800.995483 1.368281,802.959473 
	C1.000000,801.611084 1.000000,800.222229 1.000000,798.416626 
z"/>
<path fill="#DDDDDD" opacity="1.000000" stroke="none" 
	d="
M2.410397,914.717041 
	C1.970994,915.002075 1.776797,915.000977 1.291300,915.000000 
	C1.000000,913.933289 1.000000,912.866638 0.999987,911.399963 
	C1.488372,910.444092 1.976770,909.888245 2.691059,909.166626 
	C2.829834,910.810913 2.742718,912.620911 2.410397,914.717041 
z"/>
<path fill="#DDDDDD" opacity="1.000000" stroke="none" 
	d="
M1.000000,298.399994 
	C3.912081,298.827972 3.564250,300.244354 1.354915,301.966339 
	C1.000000,300.933319 1.000000,299.866669 1.000000,298.399994 
z"/>
<path fill="#DDDDDD" opacity="1.000000" stroke="none" 
	d="
M1.000000,51.399994 
	C3.912085,51.827980 3.564262,53.244358 1.354917,54.966339 
	C1.000000,53.933331 1.000000,52.866661 1.000000,51.399994 
z"/>
<path fill="#DDDDDD" opacity="1.000000" stroke="none" 
	d="
M1.000000,84.399994 
	C3.912119,84.827972 3.564258,86.244362 1.354917,87.966339 
	C1.000000,86.933327 1.000000,85.866661 1.000000,84.399994 
z"/>
<path fill="#DDDDDD" opacity="1.000000" stroke="none" 
	d="
M1.000000,151.399994 
	C3.912097,151.827988 3.564262,153.244370 1.354913,154.966339 
	C1.000000,153.933334 1.000000,152.866653 1.000000,151.399994 
z"/>
<path fill="#DDDDDD" opacity="1.000000" stroke="none" 
	d="
M1.000000,502.399994 
	C3.912081,502.827972 3.564250,504.244354 1.354915,505.966339 
	C1.000000,504.933319 1.000000,503.866669 1.000000,502.399994 
z"/>
<path fill="#D3D3D3" opacity="1.000000" stroke="none" 
	d="
M0.999998,820.428467 
	C1.192225,821.892700 1.384452,823.785461 1.288340,825.839111 
	C1.000000,824.285645 1.000000,822.571289 0.999998,820.428467 
z"/>
<path fill="#DDDDDD" opacity="1.000000" stroke="none" 
	d="
M2.079052,272.054657 
	C1.920873,273.554138 1.762695,275.053650 1.302258,276.776550 
	C1.000000,275.611115 1.000000,274.222198 1.269973,272.426178 
	C1.719648,272.030945 1.899350,272.042816 2.079052,272.054657 
z"/>
<path fill="#D3D3D3" opacity="1.000000" stroke="none" 
	d="
M2.080125,271.703308 
	C1.899350,272.042816 1.719648,272.030945 1.269973,272.009521 
	C1.000000,271.250000 1.000000,270.500000 0.999999,269.375000 
	C1.360397,269.783997 1.720798,270.567993 2.080125,271.703308 
z"/>
<path fill="#D3D3D3" opacity="1.000000" stroke="none" 
	d="
M1.000004,585.333313 
	C1.282580,585.215332 1.565151,585.430725 1.982324,585.883789 
	C1.971927,586.428223 1.758616,586.676331 1.238497,586.932861 
	C1.000000,586.555542 1.000000,586.111084 1.000004,585.333313 
z"/>
<path fill="#D3D3D3" opacity="1.000000" stroke="none" 
	d="
M1.000000,30.250000 
	C1.137058,30.293293 1.274116,30.586588 1.205587,30.939941 
	C1.000000,31.000000 1.000000,30.500000 1.000000,30.250000 
z"/>
<path fill="#D3D3D3" opacity="1.000000" stroke="none" 
	d="
M1.500000,1.000000 
	C1.827994,1.281336 1.655989,1.562673 1.241992,1.922004 
	C1.000000,1.666667 1.000000,1.333333 1.500000,1.000000 
z"/>
<path fill="#E05728" opacity="1.000000" stroke="none" 
	d="
M760.001099,695.000000 
	C760.060303,711.663330 760.142517,727.826660 760.172241,743.990051 
	C760.201782,760.104553 760.178650,776.219177 760.178650,792.632324 
	C752.729248,792.632324 745.288025,792.742554 737.851257,792.608398 
	C724.037842,792.359375 710.225403,792.026428 696.415527,791.624329 
	C657.489929,790.490967 618.563538,789.377991 579.641846,788.121277 
	C530.562439,786.536682 481.659698,782.473633 432.907684,776.747131 
	C419.266479,775.144775 405.366150,773.434143 392.355988,769.328857 
	C373.959076,763.523804 358.294983,752.903198 348.726654,735.173157 
	C342.647217,723.908020 339.562256,711.709412 338.114349,699.130005 
	C334.542114,668.094360 330.988678,637.052856 327.873993,605.969055 
	C323.154266,558.867249 321.836884,511.605774 323.303009,464.317474 
	C323.801178,448.249878 325.860321,432.159607 328.273560,416.241547 
	C330.920685,398.780457 340.868195,384.692963 351.635986,371.202911 
	C364.255615,355.392853 380.739288,344.481720 398.173065,334.980713 
	C433.320648,315.826294 471.287415,305.705414 510.825165,300.929749 
	C545.588501,296.730774 580.476440,295.251770 615.466675,296.383301 
	C654.772705,297.654388 693.725037,302.160614 732.349121,309.534363 
	C732.659607,309.593597 732.938110,309.820312 733.677429,310.194519 
	C735.416138,356.441956 737.163696,402.924194 738.925537,449.788879 
	C728.315857,447.023376 718.124512,444.230652 707.864502,441.718536 
	C678.848694,434.614136 649.378113,430.870941 619.539001,429.586945 
	C585.505676,428.122467 551.656372,430.152771 518.212463,436.193573 
	C502.173889,439.090576 486.284393,443.797150 470.974304,449.439575 
	C458.192535,454.150238 449.671783,464.127625 445.822327,477.806580 
	C440.326935,497.334320 438.159698,517.243164 437.615356,537.426819 
	C436.894958,564.138977 440.850189,590.422302 444.641693,616.726868 
	C448.075470,640.549805 452.306732,664.200073 459.938568,687.109497 
	C462.608673,695.124817 462.628998,695.118042 471.229889,695.118042 
	C505.062134,695.118042 538.894409,695.118042 572.726624,695.118042 
	C574.550354,695.118042 576.374084,695.118042 578.873108,695.118042 
	C576.920349,653.120911 574.978271,611.353943 573.057739,570.050293 
	C633.551758,570.655334 693.852295,571.258423 755.631409,571.876282 
	C757.078613,612.488403 758.539856,653.494202 760.001099,695.000000 
z"/>
<path fill="#DDDDDD" opacity="1.000000" stroke="none" 
	d="
M2.344414,998.812622 
	C2.194377,997.574524 2.297858,996.057739 2.661284,994.275085 
	C2.813464,995.517456 2.705698,997.025757 2.344414,998.812622 
z"/>
<path fill="#DDDDDD" opacity="1.000000" stroke="none" 
	d="
M2.339396,675.831055 
	C2.198627,674.897644 2.305316,673.702820 2.666255,672.257935 
	C2.809287,673.195190 2.698069,674.382385 2.339396,675.831055 
z"/>
<path fill="#DDDDDD" opacity="1.000000" stroke="none" 
	d="
M2.947549,624.596436 
	C2.759529,623.812012 2.599636,622.629517 2.679790,621.226929 
	C2.938449,622.070740 2.957063,623.134460 2.947549,624.596436 
z"/>
<path fill="#DDDDDD" opacity="1.000000" stroke="none" 
	d="
M2.218779,852.278137 
	C2.147513,851.580994 2.296985,850.988647 2.682042,850.199585 
	C2.758258,850.796265 2.598888,851.589600 2.218779,852.278137 
z"/>
</svg>